<?xml version="1.0" encoding="utf-8"?>
<!-- Generator: Adobe Illustrator 16.0.0, SVG Export Plug-In . SVG Version: 6.00 Build 0)  -->
<!DOCTYPE svg PUBLIC "-//W3C//DTD SVG 1.1//EN" "http://www.w3.org/Graphics/SVG/1.1/DTD/svg11.dtd">
<svg version="1.1" id="Layer_1" xmlns="http://www.w3.org/2000/svg" xmlns:xlink="http://www.w3.org/1999/xlink" x="0px" y="0px"
	 width="64px" height="64px" viewBox="0 0 64 64" enable-background="new 0 0 64 64" xml:space="preserve">
<path fill="#231F20" d="M31.999,4.821C17.013,4.821,4.821,17.014,4.821,32c0,14.986,12.191,27.178,27.178,27.178
	C46.986,59.178,59.18,46.986,59.18,32C59.18,17.014,46.986,4.821,31.999,4.821z M31.999,57.303C18.047,57.303,6.696,45.952,6.696,32
	S18.047,6.696,31.999,6.696c13.953,0,25.304,11.352,25.304,25.304S45.952,57.303,31.999,57.303z"/>
<path fill="#231F20" d="M27.631,33.065h10.634l0.079-0.312c0.028-0.119,0.004-0.244-0.076-0.345l-0.033-0.036
	c-0.021-0.021-0.045-0.04-0.073-0.056L33.02,12.242h-0.26l-5.1,20.149c-0.011,0.008-0.021,0.018-0.03,0.029
	c-0.079,0.102-0.104,0.228-0.075,0.349L27.631,33.065z"/>
</svg>
