<?xml version="1.0" encoding="utf-8"?>
<!-- Generator: Adobe Illustrator 16.0.4, SVG Export Plug-In . SVG Version: 6.00 Build 0)  -->
<!DOCTYPE svg PUBLIC "-//W3C//DTD SVG 1.1//EN" "http://www.w3.org/Graphics/SVG/1.1/DTD/svg11.dtd">
<svg version="1.1" id="Layer_1" xmlns="http://www.w3.org/2000/svg" xmlns:xlink="http://www.w3.org/1999/xlink" x="0px" y="0px"
	 width="50px" height="50px" viewBox="0 0 50 50" enable-background="new 0 0 50 50" xml:space="preserve">
<path d="M36.871,35.036c-2.175-1.116-4.43-2.042-6.709-2.916c-0.17-0.063-0.373-0.192-0.441-0.344
	c-0.186-0.41-0.314-0.846-0.447-1.278c-0.084-0.274-0.157-0.534-0.461-0.667c-0.08-0.036-0.154-0.195-0.152-0.296
	c0.016-1.001-0.217-2.052,0.525-2.924c0.022-0.027,0.031-0.065,0.047-0.1c0.399-0.876,0.473-1.876,1.031-2.691
	c0.014-0.02,0.018-0.046,0.02-0.07c0.064-0.621,0.133-1.242,0.186-1.864c0.006-0.077-0.062-0.214-0.129-0.237
	c-0.309-0.11-0.291-0.356-0.29-0.605c0.001-1.215,0-2.43-0.001-3.645c-0.001-0.706-0.209-1.334-0.742-1.815
	c-0.607-0.547-1.232-1.075-1.855-1.604c-0.303-0.254-0.329-0.451-0.047-0.732c0.125-0.124,0.285-0.212,0.43-0.316
	c-0.031-0.048-0.062-0.096-0.094-0.143c-0.188,0-0.381-0.026-0.564,0.004c-0.688,0.111-1.383,0.208-2.062,0.368
	c-1.295,0.306-2.554,0.711-3.604,1.578c-0.721,0.593-1.294,1.283-1.366,2.261c-0.037,0.511-0.032,1.026-0.036,1.538
	c-0.005,0.834,0.006,1.669-0.011,2.503c-0.003,0.136-0.081,0.359-0.174,0.389c-0.338,0.109-0.347,0.326-0.301,0.607
	c0.031,0.192,0.006,0.396,0.049,0.584c0.117,0.522,0.241,1.043,0.391,1.558c0.112,0.384,0.33,0.744,0.391,1.134
	c0.121,0.776,0.408,1.454,0.933,2.04c0.087,0.097,0.152,0.261,0.143,0.388c-0.041,0.599-0.102,1.197-0.183,1.791
	c-0.016,0.116-0.139,0.288-0.238,0.309c-0.397,0.083-0.459,0.39-0.554,0.698c-0.125,0.409-0.259,0.816-0.417,1.212
	c-0.05,0.123-0.173,0.251-0.294,0.305c-0.707,0.309-1.427,0.592-2.139,0.891c-0.757,0.317-1.521,0.622-2.262,0.976
	c-0.763,0.364-1.502,0.775-2.247,1.174c-0.439,0.234-0.851,0.495-1.195,0.819v1.31c8.667,0,17.334,0,26,0v-1.364
	C37.682,35.533,37.305,35.259,36.871,35.036z"/>
</svg>
